<?xml version="1.0" encoding="UTF-8"?>
<svg xmlns="http://www.w3.org/2000/svg" xmlns:xlink="http://www.w3.org/1999/xlink" viewBox="0 0 48 48" width="48px" height="48px">
<g id="surface14209456">
<path style=" stroke:none;fill-rule:nonzero;fill:rgb(94.509804%,76.862746%,5.882353%);fill-opacity:1;" d="M 29.621094 3 L 33.054688 8.308594 L 39.367188 8.625 L 39.6875 14.9375 L 44.996094 18.367188 L 42.117188 23.996094 L 45 29.621094 L 39.691406 33.054688 L 39.375 39.367188 L 33.0625 39.6875 L 29.632812 44.996094 L 24.003906 42.117188 L 18.378906 45 L 14.945312 39.691406 L 8.632812 39.375 L 8.3125 33.0625 L 3.003906 29.632812 L 5.882812 24.003906 L 3 18.378906 L 8.308594 14.945312 L 8.625 8.632812 L 14.9375 8.3125 L 18.367188 3.003906 L 23.996094 5.882812 Z M 29.621094 3 "/>
<path style=" stroke:none;fill-rule:nonzero;fill:rgb(100%,100%,100%);fill-opacity:1;" d="M 21.394531 31.253906 L 14.898438 24.761719 L 17.019531 22.640625 L 21.429688 27.046875 L 30.996094 17.773438 L 33.085938 19.925781 Z M 21.394531 31.253906 "/>
</g>
</svg>
